<svg width="780" height="500" viewBox="0 0 780 500" fill="none" xmlns="http://www.w3.org/2000/svg">
<g clip-path="url(#clip0_29_2)">
<path d="M740 0H40C17.909 0 0 17.909 0 40V460C0 482.092 17.909 500 40 500H740C762.092 500 780 482.092 780 460V40C780 17.909 762.092 0 740 0Z" fill="#006DAA"/>
<path d="M686.85 324.72V320.925H691.967V309.653H696.165L696.566 320.924H708.009L697.429 295.854L701.396 294.127L713.07 321.268V324.719H696.624V334.377H691.966V324.719H686.85V324.72ZM667.264 294.13C671.29 294.13 675.142 295.509 678.477 298.73L675.89 301.662C673.245 299.189 670.887 297.982 667.495 297.982C663.297 297.982 659.962 300.339 659.962 304.709C659.962 309.482 663.7 311.668 667.495 311.668H669.851L670.426 315.463H667.091C662.434 315.463 658.869 317.303 658.869 322.994C658.869 327.939 662.145 331.103 667.723 331.103C670.944 331.103 674.279 329.779 676.52 327.134L679.741 329.779C676.751 333.459 672.036 335.013 667.608 335.013C659.444 335.013 653.866 329.837 653.866 322.993C653.866 316.843 658.236 313.622 662.893 313.276C658.696 312.471 655.13 308.848 655.13 304.077C655.132 298.673 659.847 294.13 667.264 294.13ZM632.787 294.13C638.135 294.13 641.7 296.026 644.862 299.821L641.527 302.352C638.997 299.418 636.87 298.153 632.96 298.153C628.532 298.153 625.887 300.913 625.887 305.342C625.887 311.838 629.107 316.151 644.057 330.469V334.377H620.54L619.965 330.297H638.595C625.542 318.393 620.885 312.471 620.885 305.227C620.885 298.901 625.312 294.13 632.787 294.13ZM584.05 330.47H592.33V294.82H596.527L608.256 302.064L606.186 305.457L597.101 299.994V330.471H606.876V334.379H584.049L584.05 330.47ZM514.462 324.72V320.925H519.579V309.653H523.777L524.178 320.924H535.621L525.041 295.854L529.008 294.127L540.681 321.268V324.719H524.237V334.377H519.579V324.719H514.462V324.72ZM494.877 294.13C498.902 294.13 502.754 295.509 506.089 298.73L503.502 301.662C500.856 299.189 498.499 297.982 495.106 297.982C490.909 297.982 487.574 300.339 487.574 304.709C487.574 309.482 491.311 311.668 495.106 311.668H497.463L498.038 315.463H494.704C490.047 315.463 486.482 317.303 486.482 322.994C486.482 327.939 489.758 331.103 495.336 331.103C498.556 331.103 501.891 329.779 504.133 327.134L507.353 329.779C504.364 333.459 499.649 335.013 495.221 335.013C487.056 335.013 481.478 329.837 481.478 322.993C481.478 316.843 485.848 313.622 490.506 313.276C486.308 312.471 482.743 308.848 482.743 304.077C482.744 298.673 487.459 294.13 494.877 294.13ZM460.399 294.13C465.748 294.13 469.312 296.026 472.474 299.821L469.139 302.352C466.61 299.418 464.482 298.153 460.573 298.153C456.144 298.153 453.5 300.913 453.5 305.342C453.5 311.838 456.72 316.151 471.67 330.469V334.377H448.153L447.578 330.297H466.208C453.155 318.393 448.498 312.471 448.498 305.227C448.497 298.901 452.924 294.13 460.399 294.13ZM411.662 330.47H419.941V294.82H424.138L435.868 302.064L433.798 305.457L424.713 299.994V330.471H434.488V334.379H411.661L411.662 330.47ZM342.074 324.72V320.925H347.192V309.653H351.388L351.791 320.924H363.233L352.653 295.854L356.621 294.127L368.293 321.268V324.719H351.848V334.377H347.191V324.719H342.074V324.72ZM322.489 294.13C326.513 294.13 330.367 295.509 333.702 298.73L331.114 301.662C328.468 299.189 326.112 297.982 322.718 297.982C318.521 297.982 315.186 300.339 315.186 304.709C315.186 309.482 318.923 311.668 322.718 311.668H325.076L325.651 315.463H322.316C317.658 315.463 314.092 317.303 314.092 322.994C314.092 327.939 317.37 331.103 322.947 331.103C326.167 331.103 329.502 329.779 331.745 327.134L334.965 329.779C331.975 333.459 327.26 335.013 322.832 335.013C314.667 335.013 309.09 329.837 309.09 322.993C309.09 316.843 313.46 313.622 318.117 313.276C313.92 312.471 310.355 308.848 310.355 304.077C310.357 298.673 315.072 294.13 322.489 294.13ZM288.012 294.13C293.359 294.13 296.924 296.026 300.087 299.821L296.752 302.352C294.222 299.418 292.094 298.153 288.184 298.153C283.757 298.153 281.112 300.913 281.112 305.342C281.112 311.838 284.332 316.151 299.282 330.469V334.377H275.764L275.189 330.297H293.819C280.767 318.393 276.109 312.471 276.109 305.227C276.109 298.901 280.537 294.13 288.012 294.13ZM239.274 330.47H247.554V294.82H251.752L263.482 302.064L261.412 305.457L252.327 299.994V330.471H262.102V334.379H239.274V330.47ZM169.687 324.72V320.925H174.804V309.653H179.002L179.404 320.924H190.847L180.267 295.854L184.234 294.127L195.907 321.268V324.719H179.462V334.377H174.804V324.719H169.687V324.72ZM150.102 294.13C154.127 294.13 157.979 295.509 161.314 298.73L158.727 301.662C156.082 299.189 153.724 297.982 150.332 297.982C146.134 297.982 142.799 300.339 142.799 304.709C142.799 309.482 146.537 311.668 150.332 311.668H152.689L153.264 315.463H149.929C145.272 315.463 141.707 317.303 141.707 322.994C141.707 327.939 144.984 331.103 150.562 331.103C153.782 331.103 157.117 329.779 159.359 327.134L162.579 329.779C159.589 333.459 154.874 335.013 150.447 335.013C142.282 335.013 136.704 329.837 136.704 322.993C136.704 316.843 141.074 313.622 145.732 313.276C141.534 312.471 137.969 308.848 137.969 304.077C137.969 298.673 142.684 294.13 150.102 294.13ZM115.624 294.13C120.972 294.13 124.537 296.026 127.699 299.821L124.364 302.352C121.834 299.418 119.707 298.153 115.797 298.153C111.369 298.153 108.724 300.913 108.724 305.342C108.724 311.838 111.944 316.151 126.894 330.469V334.377H103.377L102.802 330.297H121.432C108.379 318.393 103.722 312.471 103.722 305.227C103.722 298.901 108.149 294.13 115.624 294.13ZM66.8862 330.47H75.1662V294.82H79.3642L91.0942 302.064L89.0242 305.457L79.9392 299.994V330.471H89.7142V334.379H66.8862V330.47Z" fill="white" fill-opacity="0.196"/>
<path d="M709.39 429.77H702.946V407.526L709.958 408.932V405.336L702.985 403.932H699.04V429.772H692.594V433.092H709.391L709.39 429.77ZM683.922 429.77H677.476V407.526L684.489 408.932V405.336L677.515 403.932H673.571V429.772H667.126V433.092H683.923L683.922 429.77ZM643.004 429.77H629.234V433.092H647.75V429.772C646.253 428.223 644.215 426.145 641.636 423.542C639.046 420.925 637.418 419.237 636.754 418.481C635.49 417.063 634.611 415.866 634.117 414.889C633.609 413.899 633.354 412.93 633.354 411.979C633.354 410.43 633.901 409.167 634.995 408.188C636.076 407.211 637.489 406.725 639.235 406.725C640.471 406.725 641.78 406.94 643.16 407.37C644.526 407.8 645.991 408.45 647.554 409.323V405.337C645.966 404.7 644.482 404.218 643.101 403.894C641.721 403.568 640.458 403.406 639.312 403.406C636.291 403.406 633.883 404.16 632.086 405.67C630.289 407.182 629.39 409.199 629.39 411.727C629.39 412.924 629.619 414.063 630.075 415.145C630.517 416.213 631.331 417.475 632.515 418.934C632.841 419.311 633.876 420.405 635.621 422.215C637.365 424.012 639.827 426.531 643.004 429.774V429.77ZM608.98 417.369C607.091 417.771 605.621 418.613 604.566 419.889C603.499 421.164 602.964 422.741 602.964 424.616C602.964 427.493 603.953 429.72 605.932 431.296C607.911 432.872 610.724 433.659 614.37 433.659C615.594 433.659 616.857 433.534 618.159 433.286C619.447 433.054 620.782 432.694 622.163 432.214V428.404C621.069 429.043 619.872 429.523 618.569 429.849C617.267 430.173 615.906 430.337 614.487 430.337C612.012 430.337 610.132 429.849 608.841 428.872C607.539 427.895 606.888 426.476 606.888 424.614C606.888 422.895 607.494 421.553 608.705 420.591C609.903 419.614 611.576 419.126 613.726 419.126H617.123V415.884H613.568C611.628 415.884 610.143 415.499 609.115 414.732C608.087 413.951 607.572 412.83 607.572 411.373C607.572 409.875 608.105 408.728 609.173 407.935C610.229 407.126 611.745 406.724 613.725 406.724C614.805 406.724 615.964 406.841 617.202 407.076C618.438 407.31 619.8 407.674 621.284 408.168V404.654C619.787 404.236 618.387 403.924 617.084 403.716C615.77 403.507 614.533 403.404 613.374 403.404C610.379 403.404 608.01 404.088 606.264 405.453C604.52 406.808 603.648 408.644 603.648 410.963C603.648 412.576 604.11 413.943 605.035 415.065C605.96 416.17 607.274 416.94 608.98 417.369ZM582.691 403.932H567.203V407.25H579.078V414.4C578.505 414.205 577.932 414.06 577.359 413.97C576.786 413.865 576.213 413.814 575.639 413.814C572.384 413.814 569.806 414.707 567.906 416.49C566.005 418.273 565.053 420.689 565.053 423.736C565.053 426.875 566.03 429.314 567.984 431.06C569.937 432.792 572.691 433.658 576.246 433.658C577.47 433.658 578.72 433.554 579.996 433.346C581.259 433.137 582.567 432.825 583.922 432.408V428.443C582.75 429.082 581.539 429.556 580.289 429.869C579.039 430.182 577.718 430.338 576.324 430.338C574.071 430.338 572.287 429.744 570.971 428.561C569.657 427.375 568.999 425.768 568.999 423.737C568.999 421.706 569.656 420.096 570.971 418.911C572.286 417.727 574.071 417.136 576.324 417.136C577.379 417.136 578.433 417.253 579.488 417.488C580.529 417.722 581.596 418.086 582.691 418.58V403.932ZM548.824 419.244C550.699 419.244 552.177 419.744 553.258 420.748C554.325 421.75 554.86 423.131 554.86 424.889C554.86 426.647 554.326 428.026 553.257 429.028C552.177 430.032 550.699 430.534 548.824 430.534C546.949 430.534 545.47 430.032 544.389 429.03C543.31 428.014 542.77 426.634 542.77 424.889C542.77 423.131 543.31 421.75 544.389 420.748C545.458 419.744 546.936 419.244 548.824 419.244ZM552.769 417.565C554.461 417.147 555.784 416.36 556.734 415.202C557.672 414.042 558.139 412.63 558.139 410.964C558.139 408.632 557.313 406.79 555.66 405.437C553.993 404.082 551.715 403.406 548.824 403.406C545.92 403.406 543.641 404.082 541.988 405.435C540.335 406.79 539.508 408.632 539.508 410.964C539.508 412.63 539.984 414.042 540.934 415.202C541.872 416.36 543.18 417.147 544.86 417.565C542.959 418.006 541.481 418.874 540.425 420.161C539.358 421.452 538.824 423.026 538.824 424.89C538.824 427.714 539.69 429.882 541.422 431.394C543.141 432.904 545.609 433.66 548.824 433.66C552.039 433.66 554.514 432.904 556.246 431.394C557.965 429.882 558.824 427.714 558.824 424.89C558.824 423.027 558.29 421.452 557.221 420.161C556.155 418.873 554.671 418.006 552.769 417.565ZM554.215 411.334C554.215 412.844 553.746 414.022 552.808 414.869C551.858 415.715 550.53 416.139 548.825 416.139C547.132 416.139 545.81 415.715 544.86 414.869C543.896 414.021 543.415 412.844 543.415 411.334C543.415 409.822 543.896 408.645 544.86 407.799C545.81 406.951 547.132 406.528 548.825 406.528C550.531 406.528 551.859 406.952 552.808 407.799C553.746 408.645 554.215 409.822 554.215 411.334Z" fill="white" fill-opacity="0.196"/>
<path d="M456.16 428.8H449.715V406.554L456.727 407.96V404.366L449.754 402.96H445.808V428.8H439.364V432.12H456.161V428.8H456.16ZM419.422 416.397C417.534 416.801 416.063 417.641 415.007 418.917C413.94 420.192 413.406 421.769 413.406 423.644C413.406 426.521 414.395 428.749 416.375 430.324C418.354 431.9 421.166 432.687 424.813 432.687C426.037 432.687 427.3 432.564 428.603 432.316C429.891 432.082 431.225 431.724 432.606 431.242V427.433C431.512 428.072 430.314 428.554 429.011 428.878C427.709 429.204 426.349 429.366 424.929 429.366C422.456 429.366 420.575 428.878 419.285 427.901C417.983 426.924 417.332 425.506 417.332 423.643C417.332 421.924 417.937 420.584 419.148 419.62C420.345 418.643 422.019 418.155 424.168 418.155H427.566V414.913H424.01C422.071 414.913 420.586 414.528 419.557 413.761C418.529 412.98 418.014 411.861 418.014 410.402C418.014 408.906 418.548 407.759 419.617 406.964C420.672 406.157 422.188 405.755 424.167 405.755C425.248 405.755 426.407 405.87 427.645 406.105C428.881 406.339 430.243 406.705 431.726 407.199V403.683C430.229 403.267 428.83 402.954 427.528 402.745C426.213 402.536 424.975 402.433 423.818 402.433C420.822 402.433 418.453 403.117 416.708 404.484C414.964 405.838 414.091 407.675 414.091 409.992C414.091 411.607 414.553 412.974 415.477 414.094C416.4 415.2 417.716 415.968 419.422 416.397ZM402.507 428.8H388.737V432.12H407.254V428.8C405.756 427.251 403.718 425.175 401.14 422.57C398.55 419.953 396.922 418.267 396.257 417.511C394.994 416.093 394.115 414.894 393.621 413.917C393.113 412.929 392.859 411.958 392.859 411.007C392.859 409.458 393.406 408.195 394.499 407.218C395.58 406.241 396.993 405.753 398.738 405.753C399.974 405.753 401.283 405.968 402.664 406.398C404.031 406.828 405.495 407.478 407.059 408.351V404.367C405.47 403.73 403.986 403.248 402.606 402.922C401.226 402.596 399.962 402.434 398.817 402.434C395.796 402.434 393.387 403.19 391.59 404.7C389.793 406.21 388.895 408.229 388.895 410.755C388.895 411.952 389.123 413.093 389.579 414.173C390.021 415.241 390.835 416.505 392.02 417.964C392.345 418.341 393.38 419.435 395.125 421.243C396.87 423.04 399.33 425.559 402.507 428.804V428.8ZM379.754 428.8H373.308V406.554L380.321 407.96V404.366L373.347 402.96H369.403V428.8H362.958V432.12H379.755V428.8H379.754ZM330.281 416.397C328.393 416.801 326.922 417.641 325.867 418.917C324.799 420.192 324.264 421.769 324.264 423.644C324.264 426.521 325.254 428.749 327.234 430.324C329.213 431.9 332.026 432.687 335.672 432.687C336.896 432.687 338.158 432.564 339.461 432.316C340.75 432.082 342.084 431.724 343.465 431.242V427.433C342.371 428.072 341.173 428.554 339.871 428.878C338.569 429.204 337.208 429.366 335.789 429.366C333.315 429.366 331.434 428.878 330.144 427.901C328.841 426.924 328.191 425.506 328.191 423.643C328.191 421.924 328.796 420.584 330.006 419.62C331.204 418.643 332.878 418.155 335.027 418.155H338.424V414.913H334.87C332.93 414.913 331.446 414.528 330.417 413.761C329.389 412.98 328.874 411.861 328.874 410.402C328.874 408.906 329.408 407.759 330.476 406.964C331.531 406.157 333.047 405.755 335.027 405.755C336.107 405.755 337.266 405.87 338.504 406.105C339.742 406.34 341.102 406.705 342.586 407.199V403.683C341.089 403.267 339.689 402.954 338.386 402.745C337.072 402.536 335.835 402.433 334.676 402.433C331.681 402.433 329.311 403.117 327.567 404.484C325.822 405.838 324.95 407.675 324.95 409.992C324.95 411.607 325.412 412.974 326.337 414.094C327.26 415.2 328.575 415.968 330.281 416.397ZM305.926 406.397L315.886 421.963H305.926V406.397ZM306.961 402.96H302V421.964H297.84V425.245H302V432.12H305.925V425.245H319.09V421.436L306.961 402.96ZM291.257 402.96H275.769V406.28H287.644V413.428C287.071 413.233 286.498 413.09 285.925 412.998C285.352 412.894 284.779 412.842 284.207 412.842C280.952 412.842 278.374 413.735 276.472 415.518C274.571 417.303 273.621 419.717 273.621 422.764C273.621 425.903 274.598 428.344 276.551 430.088C278.504 431.82 281.258 432.686 284.812 432.686C286.036 432.686 287.286 432.582 288.562 432.374C289.825 432.167 291.134 431.854 292.488 431.436V427.471C291.316 428.11 290.105 428.584 288.855 428.897C287.605 429.21 286.283 429.366 284.89 429.366C282.637 429.366 280.853 428.774 279.539 427.589C278.224 426.405 277.566 424.796 277.566 422.765C277.566 420.734 278.224 419.126 279.539 417.941C280.853 416.755 282.637 416.164 284.89 416.164C285.945 416.164 286.999 416.281 288.054 416.516C289.096 416.75 290.163 417.116 291.257 417.61V402.96ZM265.789 402.96H250.3V406.28H262.175V413.428C261.602 413.233 261.029 413.09 260.457 412.998C259.884 412.894 259.311 412.842 258.737 412.842C255.482 412.842 252.904 413.735 251.004 415.518C249.103 417.303 248.152 419.717 248.152 422.764C248.152 425.903 249.129 428.344 251.082 430.088C253.035 431.82 255.789 432.686 259.343 432.686C260.567 432.686 261.817 432.582 263.093 432.374C264.356 432.167 265.665 431.854 267.019 431.436V427.471C265.847 428.11 264.636 428.584 263.386 428.897C262.136 429.21 260.815 429.366 259.422 429.366C257.169 429.366 255.385 428.774 254.07 427.589C252.755 426.405 252.097 424.796 252.097 422.765C252.097 420.734 252.755 419.126 254.07 417.941C255.385 416.755 257.169 416.164 259.422 416.164C260.477 416.164 261.531 416.281 262.586 416.516C263.628 416.75 264.695 417.116 265.789 417.61V402.96Z" fill="white" fill-opacity="0.196"/>
<path d="M0 66.3459H780V168.346H0V66.3459Z" fill="#333333"/>
<path d="M31 191.35H593V271.35H31V191.35Z" fill="white"/>
<path d="M513.85 244.95H506.651V213.95H503L492.8 220.25L494.6 223.2L502.5 218.45V244.95H494V248.35H513.85V244.95ZM531.43 213.35C526.781 213.35 523.68 215 520.93 218.3L523.83 220.5C526.03 217.95 527.88 216.85 531.28 216.85C535.13 216.85 537.429 219.25 537.429 223.1C537.429 228.75 534.629 232.5 521.629 244.95V248.35H542.079L542.579 244.8H526.379C537.73 234.45 541.779 229.3 541.779 223C541.78 217.5 537.93 213.35 531.43 213.35ZM561.41 213.35C557.91 213.35 554.559 214.55 551.66 217.35L553.91 219.9C556.21 217.75 558.26 216.7 561.21 216.7C564.86 216.7 567.76 218.75 567.76 222.55C567.76 226.7 564.51 228.6 561.21 228.6H559.16L558.66 231.9H561.559C565.61 231.9 568.709 233.5 568.709 238.45C568.709 242.75 565.859 245.5 561.009 245.5C558.209 245.5 555.309 244.35 553.36 242.05L550.559 244.35C553.16 247.55 557.259 248.9 561.11 248.9C568.21 248.9 573.059 244.4 573.059 238.45C573.059 233.1 569.259 230.3 565.209 230C568.859 229.3 571.959 226.15 571.959 222C571.96 217.3 567.86 213.35 561.41 213.35Z" fill="black"/>
<path d="M56 354.93H139C152.807 354.93 164 366.123 164 379.93V424.93C164 438.737 152.807 449.93 139 449.93H56C42.193 449.93 31 438.737 31 424.93V379.93C31 366.123 42.193 354.93 56 354.93Z" fill="#A5A5A5"/>
</g>
<defs>
<clipPath id="clip0_29_2">
<rect width="780" height="500" fill="white"/>
</clipPath>
</defs>
</svg>
