<svg width="341" height="50" viewBox="0 0 341 50" fill="none" xmlns="http://www.w3.org/2000/svg">
<path d="M30.0052 11.2028L54.6669 49.3941H6.06188L30.0052 11.2028Z" fill="#E5E9EA"/>
<path d="M1.01545 1.44803L30.004 1.44804L0.53706 47.6456L1.01545 1.44803Z" fill="#006DAA"/>
<path d="M54.9067 40.2282L54.9076 1.48847L29.767 1.4885L54.9067 40.2282Z" fill="#003559"/>
<path d="M85.4775 41.5C84.1442 41.5 82.8942 41.3 81.7275 40.9C80.5942 40.4667 79.5942 39.8833 78.7275 39.15C77.8609 38.3833 77.1609 37.5 76.6275 36.5H77.2775V41H74.0275V31.5H77.0275C77.1609 32.8667 77.5775 34.0833 78.2775 35.15C78.9775 36.2167 79.9275 37.0667 81.1275 37.7C82.3275 38.3 83.7275 38.6 85.3275 38.6C87.0609 38.6 88.4109 38.2 89.3775 37.4C90.3442 36.5667 90.8275 35.3833 90.8275 33.85C90.8275 32.6167 90.6109 31.6667 90.1775 31C89.7442 30.3 89.0275 29.7667 88.0275 29.4C87.0275 29 85.6942 28.6667 84.0275 28.4L82.8275 28.2C80.1275 27.7333 77.9609 26.85 76.3275 25.55C74.6942 24.2167 73.8775 22.3667 73.8775 20C73.8775 18.3333 74.2442 16.9333 74.9775 15.8C75.7109 14.6667 76.7442 13.8 78.0775 13.2C79.4109 12.6 80.9609 12.3 82.7275 12.3C84.6942 12.3 86.4275 12.7333 87.9275 13.6C89.4275 14.4667 90.4442 15.65 90.9775 17.15H89.9275V12.85H93.1275V20.8H90.1775C90.0442 20 89.7609 19.1667 89.3275 18.3C88.8942 17.4333 88.1775 16.7 87.1775 16.1C86.1775 15.5 84.7609 15.2 82.9275 15.2C81.1942 15.2 79.8609 15.6167 78.9275 16.45C77.9942 17.25 77.5275 18.3 77.5275 19.6C77.5275 21.0333 78.0442 22.1333 79.0775 22.9C80.1109 23.6667 81.6109 24.2333 83.5775 24.6L84.7275 24.8C86.9275 25.1667 88.7442 25.6667 90.1775 26.3C91.6109 26.9333 92.6775 27.8 93.3775 28.9C94.1109 30 94.4775 31.45 94.4775 33.25C94.4775 34.7167 94.1275 36.0833 93.4275 37.35C92.7275 38.5833 91.7109 39.5833 90.3775 40.35C89.0442 41.1167 87.4109 41.5 85.4775 41.5ZM105.301 41.55C103.267 41.55 101.634 40.9833 100.401 39.85C99.1673 38.7167 98.5506 37.3333 98.5506 35.7C98.5506 34.2 98.9006 33 99.6006 32.1C100.334 31.2 101.301 30.55 102.501 30.15C103.701 29.75 105.017 29.55 106.451 29.55C107.584 29.55 108.734 29.65 109.901 29.85C111.101 30.0167 112.267 30.25 113.401 30.55L111.901 30.8V28.15C111.901 26.5833 111.484 25.4333 110.651 24.7C109.817 23.9667 108.684 23.6 107.251 23.6C106.317 23.6 105.217 23.7667 103.951 24.1C102.717 24.4 101.567 24.8333 100.501 25.4L99.4006 23C100.567 22.2667 101.884 21.7333 103.351 21.4C104.817 21.0333 106.134 20.85 107.301 20.85C109.034 20.85 110.517 21.1333 111.751 21.7C112.984 22.2667 113.917 23.0833 114.551 24.15C115.217 25.1833 115.551 26.4 115.551 27.8V38.35H118.651V41H112.301L112.001 38.2H113.401C112.101 39.3333 110.834 40.1833 109.601 40.75C108.367 41.2833 106.934 41.55 105.301 41.55ZM105.851 39C107.084 39 108.317 38.7333 109.551 38.2C110.784 37.6667 112.067 36.85 113.401 35.75L111.901 37.55V31.75L113.051 32.65C112.184 32.3833 111.201 32.1667 110.101 32C109.001 31.8333 107.867 31.75 106.701 31.75C105.534 31.75 104.467 32.0167 103.501 32.55C102.534 33.05 102.051 34.0333 102.051 35.5C102.051 36.5 102.384 37.3333 103.051 38C103.717 38.6667 104.651 39 105.851 39ZM130.603 41L123.103 24H119.753V21.35H130.253V24H127.053L132.553 37.2L138.003 24H134.853V21.35H144.753V24H141.603L133.953 41H130.603ZM157.437 41.6C155.37 41.6 153.487 41.1667 151.787 40.3C150.12 39.4333 148.787 38.2167 147.787 36.65C146.82 35.0833 146.337 33.2667 146.337 31.2C146.337 29.0667 146.804 27.2333 147.737 25.7C148.67 24.1333 149.92 22.9333 151.487 22.1C153.054 21.2333 154.804 20.8 156.737 20.8C158.737 20.8 160.454 21.2167 161.887 22.05C163.354 22.8833 164.47 24.0667 165.237 25.6C166.004 27.1333 166.387 28.9333 166.387 31V31.95H149.587L149.637 29.65H162.737C162.737 28.35 162.47 27.25 161.937 26.35C161.437 25.4167 160.737 24.7167 159.837 24.25C158.937 23.75 157.904 23.5 156.737 23.5C155.504 23.5 154.387 23.8 153.387 24.4C152.387 24.9667 151.587 25.8 150.987 26.9C150.42 27.9667 150.137 29.2667 150.137 30.8C150.137 32.4333 150.437 33.85 151.037 35.05C151.637 36.2167 152.47 37.1333 153.537 37.8C154.637 38.4333 155.887 38.75 157.287 38.75C158.787 38.75 160.17 38.45 161.437 37.85C162.704 37.25 163.804 36.5 164.737 35.6L166.037 37.85C165.137 38.8833 163.97 39.7667 162.537 40.5C161.104 41.2333 159.404 41.6 157.437 41.6ZM169.234 41V38.35H173.034V24H169.234V21.35H176.684V23.8L175.334 24.2C176.7 23.2 178.084 22.4 179.484 21.8C180.917 21.1667 182.317 20.85 183.684 20.85C185.717 20.85 187.3 21.4833 188.434 22.75C189.567 23.9833 190.134 25.5667 190.134 27.5V38.35H193.734V41H183.184V38.35H186.484V28.1C186.484 26.7333 186.15 25.6667 185.484 24.9C184.817 24.1333 183.9 23.75 182.734 23.75C181.634 23.75 180.417 24.0167 179.084 24.55C177.784 25.0833 176.5 25.7833 175.234 26.65L176.684 25.2V38.35H180.234V41H169.234ZM196.834 41V38.35H200.134V28.1C200.134 26.7333 199.8 25.6667 199.134 24.9C198.467 24.1333 197.55 23.75 196.384 23.75C195.25 23.75 194.084 24 192.884 24.5C191.717 24.9667 190.6 25.5833 189.534 26.35L188.784 24.3C190.184 23.3 191.567 22.4833 192.934 21.85C194.3 21.1833 195.767 20.85 197.334 20.85C199.1 20.85 200.617 21.4167 201.884 22.55C203.15 23.65 203.784 25.2667 203.784 27.4V38.35H207.384V41H196.834ZM216.189 41.55C214.156 41.55 212.523 40.9833 211.289 39.85C210.056 38.7167 209.439 37.3333 209.439 35.7C209.439 34.2 209.789 33 210.489 32.1C211.223 31.2 212.189 30.55 213.389 30.15C214.589 29.75 215.906 29.55 217.339 29.55C218.473 29.55 219.623 29.65 220.789 29.85C221.989 30.0167 223.156 30.25 224.289 30.55L222.789 30.8V28.15C222.789 26.5833 222.373 25.4333 221.539 24.7C220.706 23.9667 219.573 23.6 218.139 23.6C217.206 23.6 216.106 23.7667 214.839 24.1C213.606 24.4 212.456 24.8333 211.389 25.4L210.289 23C211.456 22.2667 212.773 21.7333 214.239 21.4C215.706 21.0333 217.023 20.85 218.189 20.85C219.923 20.85 221.406 21.1333 222.639 21.7C223.873 22.2667 224.806 23.0833 225.439 24.15C226.106 25.1833 226.439 26.4 226.439 27.8V38.35H229.539V41H223.189L222.889 38.2H224.289C222.989 39.3333 221.723 40.1833 220.489 40.75C219.256 41.2833 217.823 41.55 216.189 41.55ZM216.739 39C217.973 39 219.206 38.7333 220.439 38.2C221.673 37.6667 222.956 36.85 224.289 35.75L222.789 37.55V31.75L223.939 32.65C223.073 32.3833 222.089 32.1667 220.989 32C219.889 31.8333 218.756 31.75 217.589 31.75C216.423 31.75 215.356 32.0167 214.389 32.55C213.423 33.05 212.939 34.0333 212.939 35.5C212.939 36.5 213.273 37.3333 213.939 38C214.606 38.6667 215.539 39 216.739 39ZM231.392 41V38.35H235.192V24H231.392V21.35H238.842V24.05L237.442 24.2C238.842 23.2333 240.242 22.4333 241.642 21.8C243.042 21.1667 244.475 20.85 245.942 20.85C247.742 20.85 249.259 21.4167 250.492 22.55C251.759 23.65 252.392 25.2667 252.392 27.4V38.35H256.042V41H245.492V38.35H248.742V28.1C248.742 26.7333 248.409 25.6667 247.742 24.9C247.075 24.1333 246.159 23.75 244.992 23.75C243.792 23.75 242.575 24.0167 241.342 24.55C240.109 25.0833 238.792 25.8167 237.392 26.75L238.842 25.15V38.35H242.392V41H231.392ZM267.572 41.55C265.772 41.55 264.105 41.15 262.572 40.35C261.072 39.5167 259.855 38.3167 258.922 36.75C257.989 35.1833 257.522 33.3167 257.522 31.15C257.522 28.9167 257.955 27.05 258.822 25.55C259.722 24.0167 260.905 22.85 262.372 22.05C263.839 21.25 265.439 20.85 267.172 20.85C268.572 20.85 269.955 21.1167 271.322 21.65C272.722 22.15 273.955 22.8667 275.022 23.8L273.822 24.25V14.95H270.322V12.35H277.522V38.35H280.622V41H273.822V38.4L274.972 38.6C274.005 39.5333 272.905 40.2667 271.672 40.8C270.472 41.3 269.105 41.55 267.572 41.55ZM268.372 38.75C269.672 38.75 270.872 38.5 271.972 38C273.105 37.5 274.139 36.8333 275.072 36L273.822 37.7V24.7L275.072 26.5C274.039 25.6 272.872 24.9 271.572 24.4C270.305 23.9 269.089 23.65 267.922 23.65C266.655 23.65 265.522 23.95 264.522 24.55C263.555 25.15 262.789 26.0333 262.222 27.2C261.655 28.3333 261.372 29.75 261.372 31.45C261.372 33.0167 261.689 34.35 262.322 35.45C262.955 36.5167 263.789 37.3333 264.822 37.9C265.889 38.4667 267.072 38.75 268.372 38.75ZM294.107 41.6C292.04 41.6 290.157 41.1667 288.457 40.3C286.79 39.4333 285.457 38.2167 284.457 36.65C283.49 35.0833 283.007 33.2667 283.007 31.2C283.007 29.0667 283.474 27.2333 284.407 25.7C285.34 24.1333 286.59 22.9333 288.157 22.1C289.724 21.2333 291.474 20.8 293.407 20.8C295.407 20.8 297.124 21.2167 298.557 22.05C300.024 22.8833 301.14 24.0667 301.907 25.6C302.674 27.1333 303.057 28.9333 303.057 31V31.95H286.257L286.307 29.65H299.407C299.407 28.35 299.14 27.25 298.607 26.35C298.107 25.4167 297.407 24.7167 296.507 24.25C295.607 23.75 294.574 23.5 293.407 23.5C292.174 23.5 291.057 23.8 290.057 24.4C289.057 24.9667 288.257 25.8 287.657 26.9C287.09 27.9667 286.807 29.2667 286.807 30.8C286.807 32.4333 287.107 33.85 287.707 35.05C288.307 36.2167 289.14 37.1333 290.207 37.8C291.307 38.4333 292.557 38.75 293.957 38.75C295.457 38.75 296.84 38.45 298.107 37.85C299.374 37.25 300.474 36.5 301.407 35.6L302.707 37.85C301.807 38.8833 300.64 39.7667 299.207 40.5C297.774 41.2333 296.074 41.6 294.107 41.6ZM306.554 41V38.35H310.354V24H306.554V21.35H314.004V27.2L313.304 27.1C313.67 25.6 314.137 24.4167 314.704 23.55C315.304 22.6833 315.97 22.0667 316.704 21.7C317.47 21.3 318.254 21.1 319.054 21.1C319.72 21.1 320.387 21.1833 321.054 21.35C321.72 21.5167 322.387 21.7667 323.054 22.1L322.154 25.45C321.587 25.0833 321.02 24.8167 320.454 24.65C319.887 24.45 319.304 24.35 318.704 24.35C317.437 24.35 316.337 24.8833 315.404 25.95C314.504 26.9833 314.054 28.4833 314.054 30.45L314.004 38.35H317.504V41H306.554Z" fill="black"/>
</svg>
